<svg id="my-svg" width="100%" xmlns="http://www.w3.org/2000/svg" xmlns:xlink="http://www.w3.org/1999/xlink" style="max-width: 700px; background-color: transparent;" viewBox="0 0 700 420" role="graphics-document document" aria-roledescription="xychart"><style>#my-svg{font-family:"trebuchet ms",verdana,arial,sans-serif;font-size:16px;fill:#333;}@keyframes edge-animation-frame{from{stroke-dashoffset:0;}}@keyframes dash{to{stroke-dashoffset:0;}}#my-svg .edge-animation-slow{stroke-dasharray:9,5!important;stroke-dashoffset:900;animation:dash 50s linear infinite;stroke-linecap:round;}#my-svg .edge-animation-fast{stroke-dasharray:9,5!important;stroke-dashoffset:900;animation:dash 20s linear infinite;stroke-linecap:round;}#my-svg .error-icon{fill:#552222;}#my-svg .error-text{fill:#552222;stroke:#552222;}#my-svg .edge-thickness-normal{stroke-width:1px;}#my-svg .edge-thickness-thick{stroke-width:3.5px;}#my-svg .edge-pattern-solid{stroke-dasharray:0;}#my-svg .edge-thickness-invisible{stroke-width:0;fill:none;}#my-svg .edge-pattern-dashed{stroke-dasharray:3;}#my-svg .edge-pattern-dotted{stroke-dasharray:2;}#my-svg .marker{fill:#333333;stroke:#333333;}#my-svg .marker.cross{stroke:#333333;}#my-svg svg{font-family:"trebuchet ms",verdana,arial,sans-serif;font-size:16px;}#my-svg p{margin:0;}#my-svg :root{--mermaid-font-family:"trebuchet ms",verdana,arial,sans-serif;}</style><g/><g class="main"><rect width="700" height="420" class="background" fill="white"/><g class="chart-title"><text x="0" y="0" fill="#131300" font-size="20" dominant-baseline="middle" text-anchor="middle" transform="translate(350, 21.5) rotate(0)">Release activity</text></g><g class="plot"><g class="bar-plot-0"><rect x="63.09179878234863" y="313.4" width="66.5" height="73.60000000000002" fill="#ECECFF" stroke="#ECECFF" stroke-width="0"/><rect x="176.8234390258789" y="264.2" width="66.5" height="122.80000000000001" fill="#ECECFF" stroke="#ECECFF" stroke-width="0"/><rect x="290.5550792694092" y="231.4" width="66.5" height="155.6" fill="#ECECFF" stroke="#ECECFF" stroke-width="0"/><rect x="404.2867195129395" y="149.4" width="66.5" height="237.6" fill="#ECECFF" stroke="#ECECFF" stroke-width="0"/><rect x="518.0183597564697" y="83.79999999999998" width="66.5" height="303.20000000000005" fill="#ECECFF" stroke="#ECECFF" stroke-width="0"/><rect x="631.75" y="116.6" width="66.5" height="270.4" fill="#ECECFF" stroke="#ECECFF" stroke-width="0"/></g><g class="line-plot-1"><path d="M96.342,329.8L210.073,297L323.805,247.8L437.537,198.6L551.268,133L665,67.4" fill="none" stroke="#8493A6" stroke-width="2"/></g></g><g class="bottom-axis"><g class="axis-line"><path d="M 61.34179878234863,388 L 700,388" fill="none" stroke="#131300" stroke-width="2"/></g><g class="label"><text x="0" y="0" fill="#131300" font-size="14" dominant-baseline="text-before-edge" text-anchor="middle" transform="translate(96.34179878234863, 399) rotate(0)">Jan</text><text x="0" y="0" fill="#131300" font-size="14" dominant-baseline="text-before-edge" text-anchor="middle" transform="translate(210.0734390258789, 399) rotate(0)">Feb</text><text x="0" y="0" fill="#131300" font-size="14" dominant-baseline="text-before-edge" text-anchor="middle" transform="translate(323.8050792694092, 399) rotate(0)">Mar</text><text x="0" y="0" fill="#131300" font-size="14" dominant-baseline="text-before-edge" text-anchor="middle" transform="translate(437.5367195129395, 399) rotate(0)">Apr</text><text x="0" y="0" fill="#131300" font-size="14" dominant-baseline="text-before-edge" text-anchor="middle" transform="translate(551.2683597564697, 399) rotate(0)">May</text><text x="0" y="0" fill="#131300" font-size="14" dominant-baseline="text-before-edge" text-anchor="middle" transform="translate(665, 399) rotate(0)">Jun</text></g><g class="ticks"><path d="M 96.34179878234863,389 L 96.34179878234863,394" fill="none" stroke="#131300" stroke-width="2"/><path d="M 210.0734390258789,389 L 210.0734390258789,394" fill="none" stroke="#131300" stroke-width="2"/><path d="M 323.8050792694092,389 L 323.8050792694092,394" fill="none" stroke="#131300" stroke-width="2"/><path d="M 437.5367195129395,389 L 437.5367195129395,394" fill="none" stroke="#131300" stroke-width="2"/><path d="M 551.2683597564697,389 L 551.2683597564697,394" fill="none" stroke="#131300" stroke-width="2"/><path d="M 665,389 L 665,394" fill="none" stroke="#131300" stroke-width="2"/></g></g><g class="left-axis"><g class="axisl-line"><path d="M 60.34179878234863,43 L 60.34179878234863,387" fill="none" stroke="#131300" stroke-width="2"/></g><g class="label"><text x="0" y="0" fill="#131300" font-size="14" dominant-baseline="middle" text-anchor="end" transform="translate(49.34179878234863, 51) rotate(0)">20</text><text x="0" y="0" fill="#131300" font-size="14" dominant-baseline="middle" text-anchor="end" transform="translate(49.34179878234863, 83.79999999999998) rotate(0)">18</text><text x="0" y="0" fill="#131300" font-size="14" dominant-baseline="middle" text-anchor="end" transform="translate(49.34179878234863, 116.6) rotate(0)">16</text><text x="0" y="0" fill="#131300" font-size="14" dominant-baseline="middle" text-anchor="end" transform="translate(49.34179878234863, 149.4) rotate(0)">14</text><text x="0" y="0" fill="#131300" font-size="14" dominant-baseline="middle" text-anchor="end" transform="translate(49.34179878234863, 182.2) rotate(0)">12</text><text x="0" y="0" fill="#131300" font-size="14" dominant-baseline="middle" text-anchor="end" transform="translate(49.34179878234863, 215) rotate(0)">10</text><text x="0" y="0" fill="#131300" font-size="14" dominant-baseline="middle" text-anchor="end" transform="translate(49.34179878234863, 247.8) rotate(0)">8</text><text x="0" y="0" fill="#131300" font-size="14" dominant-baseline="middle" text-anchor="end" transform="translate(49.34179878234863, 280.6) rotate(0)">6</text><text x="0" y="0" fill="#131300" font-size="14" dominant-baseline="middle" text-anchor="end" transform="translate(49.34179878234863, 313.4) rotate(0)">4</text><text x="0" y="0" fill="#131300" font-size="14" dominant-baseline="middle" text-anchor="end" transform="translate(49.34179878234863, 346.20000000000005) rotate(0)">2</text><text x="0" y="0" fill="#131300" font-size="14" dominant-baseline="middle" text-anchor="end" transform="translate(49.34179878234863, 379) rotate(0)">0</text></g><g class="ticks"><path d="M 59.34179878234863,51 L 54.34179878234863,51" fill="none" stroke="#131300" stroke-width="2"/><path d="M 59.34179878234863,83.79999999999998 L 54.34179878234863,83.79999999999998" fill="none" stroke="#131300" stroke-width="2"/><path d="M 59.34179878234863,116.6 L 54.34179878234863,116.6" fill="none" stroke="#131300" stroke-width="2"/><path d="M 59.34179878234863,149.4 L 54.34179878234863,149.4" fill="none" stroke="#131300" stroke-width="2"/><path d="M 59.34179878234863,182.2 L 54.34179878234863,182.2" fill="none" stroke="#131300" stroke-width="2"/><path d="M 59.34179878234863,215 L 54.34179878234863,215" fill="none" stroke="#131300" stroke-width="2"/><path d="M 59.34179878234863,247.8 L 54.34179878234863,247.8" fill="none" stroke="#131300" stroke-width="2"/><path d="M 59.34179878234863,280.6 L 54.34179878234863,280.6" fill="none" stroke="#131300" stroke-width="2"/><path d="M 59.34179878234863,313.4 L 54.34179878234863,313.4" fill="none" stroke="#131300" stroke-width="2"/><path d="M 59.34179878234863,346.20000000000005 L 54.34179878234863,346.20000000000005" fill="none" stroke="#131300" stroke-width="2"/><path d="M 59.34179878234863,379 L 54.34179878234863,379" fill="none" stroke="#131300" stroke-width="2"/></g><g class="title"><text x="0" y="0" fill="#131300" font-size="16" dominant-baseline="text-before-edge" text-anchor="middle" transform="translate(5, 215) rotate(270)">Merged PRs</text></g></g></g><g class="mermaid-tmp-group"/></svg>